<?xml version="1.0" encoding="UTF-8"?>
<svg width="150px" height="150px" viewBox="0 0 150 150" version="1.1" xmlns="http://www.w3.org/2000/svg" xmlns:xlink="http://www.w3.org/1999/xlink">
    <!-- Generator: Sketch 48.2 (47327) - http://www.bohemiancoding.com/sketch -->
    <title>Fill 1</title>
    <desc>Created with Sketch.</desc>
    <defs></defs>
    <g id="A4-Copy-4" stroke="none" stroke-width="1" fill="none" fill-rule="evenodd" transform="translate(-136.000000, -223.000000)">
        <g id="Page-1" transform="translate(136.000000, 223.000000)" fill="#425364">
            <path d="M100.836064,123.635426 C100.74617,123.635426 100.656809,123.63383 100.566383,123.63117 C97.0770213,123.529043 94.1211702,121.359362 93.0360638,118.103511 C91.6147872,113.838085 87.8392553,101.441277 84.922766,91.7928723 C83.4488298,86.9152128 79.0334043,83.6380851 73.9360638,83.6380851 C72.7610638,83.6380851 71.8084043,82.6854255 71.8084043,81.5104255 C71.8084043,80.3354255 72.7610638,79.382766 73.9360638,79.382766 C80.922766,79.382766 86.9748936,83.8753191 88.9961702,90.5614894 C91.9046809,100.18383 95.6669149,112.539681 97.0732979,116.757766 C97.697234,118.629574 99.3514894,119.338617 100.691383,119.377979 C102.399362,119.425851 104.645638,118.43117 105.824894,115.481702 C110.329149,104.221596 112.085,100.089149 114.546702,94.5503191 L114.836064,93.8965957 C117.474894,87.9226596 120.767447,80.4832979 132.824362,81.1237234 C133.998298,81.1854255 134.899362,82.1864894 134.83766,83.3598936 C134.775957,84.5332979 133.770638,85.4444681 132.600957,85.3726596 C123.464787,84.8955319 121.270106,89.8620213 118.728617,95.6157447 L118.435,96.2790426 C115.99617,101.765745 114.254681,105.866277 109.775957,117.062021 C108.145638,121.138617 104.736596,123.635426 100.836064,123.635426 M57.9787234,26.5957447 C56.218617,26.5957447 54.787234,28.0271277 54.787234,29.787234 C54.787234,31.5473404 56.218617,32.9787234 57.9787234,32.9787234 C59.7388298,32.9787234 61.1702128,31.5473404 61.1702128,29.787234 C61.1702128,28.0271277 59.7388298,26.5957447 57.9787234,26.5957447 M57.9787234,37.2340426 C53.8723404,37.2340426 50.5319149,33.893617 50.5319149,29.787234 C50.5319149,25.6808511 53.8723404,22.3404255 57.9787234,22.3404255 C62.0851064,22.3404255 65.4255319,25.6808511 65.4255319,29.787234 C65.4255319,33.893617 62.0851064,37.2340426 57.9787234,37.2340426 Z M75,150 C33.6446809,150 -1.42108547e-14,116.355319 -1.42108547e-14,75 C-1.42108547e-14,63.0010638 2.74893617,51.5361702 8.17074468,40.9244681 C8.48138298,40.2893617 12.2335106,32.9787234 20.212766,32.9787234 C26.2473404,32.9787234 30.4968085,36.5558511 34.8819149,45.325 C38.4388298,52.4388298 42.2526596,65.3861702 45.3170213,75.7893617 C47.1473404,82.0021277 48.7281915,87.3675532 49.8478723,90.1675532 C50.9404255,92.8984043 52.4696809,94.4718085 54.0430851,94.4829787 C54.0484043,94.4835106 54.0537234,94.4835106 54.0590426,94.4835106 C55.575,94.4835106 57.1765957,92.9893617 58.1425532,90.6712766 C60.2005319,85.7319149 61.768617,81.5484043 63.2851064,77.5021277 C65.7324468,70.9734043 68.043617,64.8058511 72.0180851,56.5265957 C76.3276596,47.5484043 83.4776596,45.7446809 93.6170213,45.7446809 C94.7920213,45.7446809 95.7446809,46.6973404 95.7446809,47.8723404 C95.7446809,49.0473404 94.7920213,50 93.6170213,50 C82.0611702,50 78.4590426,52.9404255 75.8542553,58.3675532 C71.962234,66.4765957 69.6824468,72.5574468 67.2696809,78.9962766 C65.7398936,83.0771277 64.1579787,87.2973404 62.0702128,92.3074468 C60.4079787,96.2973404 57.3117021,98.7430851 54.012234,98.7382979 C50.6223404,98.7143617 47.6643617,96.1659574 45.8968085,91.7473404 C44.7026596,88.762234 43.0962766,83.3074468 41.2351064,76.9914894 C38.218617,66.75 34.4638298,54.0031915 31.0755319,47.2281915 C26.9281915,38.9335106 23.7335106,37.2340426 20.212766,37.2340426 C14.7638298,37.2340426 12.1031915,42.568617 11.9925532,42.7957447 C6.85053191,52.8531915 4.25531915,63.6728723 4.25531915,75 C4.25531915,114.009043 35.9914894,145.744681 75,145.744681 C114.008511,145.744681 145.744681,114.009043 145.744681,75 C145.744681,35.9909574 114.008511,4.25531915 75,4.25531915 C56.6632979,4.25531915 39.2776596,11.2420213 26.0462766,23.9276596 C25.1989362,24.7414894 23.8515957,24.7132979 23.0382979,23.8643617 C22.225,23.0164894 22.2531915,21.6691489 23.1015957,20.8558511 C37.1287234,7.40691489 55.5601064,0 75,0 C116.355319,0 150,33.6446809 150,75 C150,116.355319 116.355319,150 75,150 Z" id="Fill-1"></path>
        </g>
    </g>
</svg>